<svg width="100" height="100" viewBox="0 0 200 200" xmlns="http://www.w3.org/2000/svg">
	<rect fill="rgb(21, 39, 63)" stroke= "none" x="0" y="0" width="200" height="200" rx="30" ry="30"></rect>
	<g transform="translate(0 10)">
		<g transform="scale(1,1)">
			<path fill="none" stroke-width="7px" stroke="rgb(250, 250, 250)" d="
				m  30, 30
				l  40,   0
				m  60,   0
				l  40,   0
				a   14, 10 0 0 1  14, 10
				l    0, 100
				a   14, 10 0 0 1 -14, 10
				l  -36, 0
				a   30, 20, 0 0 0 -9, 6
				l  -15, 10
				a   20, 30, 0 0 1 -20, 0
				l  -15, -10
				a   30, 20, 0 0 0 -9, -6
				l  -36, 0
				a   14, 10 0 0 1 -14,-10
				l    0,-100
				a   14, 10 0 0 1  14,-10
				m   70, 20
				l    0, 105"
			/>
			<g transform="translate(100 5)">
				<g transform="scale(0.35,0.25)">
					<rect fill="rgb(250, 250, 250)" stroke= "none" x="0" y="0" width="100" height="100" rx="10" ry="10" transform="rotate(45)"></rect>
				</g>
			</g>
		</g>
	</g>
</svg>
